<svg width="15" height="23" viewBox="0 0 15 23" fill="none" xmlns="http://www.w3.org/2000/svg">
<path d="M2.15569 23H12.8443C14.2927 23 15 22.2455 15 20.5951V11.9421C15 10.4567 14.4162 9.69042 13.2148 9.56074V6.58995C13.2148 2.14557 10.4416 0 7.5 0C4.55838 0 1.78518 2.14557 1.78518 6.58995V9.61968C0.68488 9.79651 0 10.551 0 11.9421V20.5951C0 22.2455 0.707335 23 2.15569 23ZM3.59281 6.34239C3.59281 3.38339 5.40045 1.81548 7.5 1.81548C9.59955 1.81548 11.4072 3.38339 11.4072 6.34239V9.54895L3.59281 9.56074V6.34239Z" fill="#F2C572" fill-opacity="0.8"/>
</svg>
